<?xml version="1.0" encoding="UTF-8"?>
<svg width="207px" height="36px" viewBox="0 0 207 36" version="1.1" xmlns="http://www.w3.org/2000/svg" xmlns:xlink="http://www.w3.org/1999/xlink">
    <!-- Generator: Sketch 47.1 (45422) - http://www.bohemiancoding.com/sketch -->
    <title>Logo</title>
    <desc>Created with Sketch.</desc>
    <defs>
        <polygon id="path-1" points="0.218801052 0.147174757 19.7117172 0.147174757 19.7117172 30.8953465 0.218801052 30.8953465"></polygon>
    </defs>
    <g id="Main-Website" stroke="none" stroke-width="1" fill="none" fill-rule="evenodd">
        <g id="Homepage-Tablet" transform="translate(-50.000000, -32.000000)">
            <g id="Header">
                <g id="Logo" transform="translate(50.000000, 32.000000)">
                    <g id="Group-3" fill="#F45D1F">
                        <path d="M42.1031269,21.5198446 C40.4950051,21.5198446 39.4229239,20.4512732 39.4229239,18.3141304 C39.4229239,16.7112732 40.4950051,15.6427018 41.5670863,15.6427018 C43.1752081,15.6427018 44.2472893,17.2455589 44.2472893,18.8484161 C44.2472893,20.4512732 43.1752081,21.5198446 42.1031269,21.5198446 M52.2878985,11.9027018 C51.7518579,11.9027018 51.7518579,12.9712732 50.143736,14.5741304 C48.7771371,15.9362554 47.463533,16.1769875 47.463533,16.1769875 C47.463533,16.1769875 46.8294213,13.7238268 44.2472893,12.4369875 C42.1031269,11.3684161 37.2787614,11.3684161 35.6706396,16.1769875 C34.7578477,18.9063982 35.6706396,20.9855589 34.0625178,20.9855589 C32.4543959,20.9855589 33.0653604,16.7228089 33.5264772,13.5055589 C34.0625178,9.76555893 36.2066802,1.2169875 35.6706396,0.682701786 C34.5985584,0.148416071 32.9904365,0.148416071 31.9183553,0.682701786 C31.3823147,1.2169875 30.3102335,3.35413036 28.7021117,5.49127321 C27.7923655,6.70009464 27.6300305,6.55984464 27.0939898,5.49127321 C26.5579492,4.42270179 25.485868,1.75127321 24.9498274,0.682701786 C23.8777462,0.148416071 22.2696244,0.148416071 21.1975431,0.682701786 C20.6615025,1.2169875 18.5666802,13.5198268 17.4452589,17.2455589 C15.8368325,22.5884161 13.6929746,28.4655589 9.40464975,28.4655589 C7.26018274,28.4655589 5.11632487,26.3284161 5.11632487,23.1227018 C5.11632487,19.9169875 6.75977665,16.9180054 10.476731,16.1769875 C13.1566294,15.6427018 13.1566294,11.9027018 10.476731,11.9027018 C8.33256853,11.9027018 5.11632487,12.4369875 2.43581726,15.6427018 C-0.244385787,18.8484161 -0.876060914,24.5346125 1.36373604,28.9998446 C2.97216244,32.2055589 6.72414213,33.8084161 9.40464975,33.8084161 C11.012467,33.8084161 14.7650558,33.2741304 17.9812995,28.4655589 C20.1254619,25.2598446 21.7902335,19.3960589 22.2696244,17.2455589 C23.3417056,12.4369875 23.8777462,8.6969875 23.8777462,8.6969875 C23.8777462,8.6969875 24.4137868,9.76555893 25.485868,11.3684161 C26.5579492,12.9712732 27.0939898,12.4369875 28.1660711,11.3684161 L30.8462741,8.6969875 C30.8462741,8.6969875 28.6396751,15.6797375 29.2381523,20.4512732 C29.7741929,24.7255589 32.4543959,25.7941304 34.0625178,25.7941304 C36.7427208,25.7941304 37.2787614,23.6569875 37.2787614,23.6569875 C37.2787614,23.6569875 38.8865787,25.7941304 41.5670863,25.7941304 C44.2472893,25.7941304 47.463533,24.7255589 47.9995736,19.9169875 C49.0716548,19.9169875 50.5850558,19.2676482 51.2158173,18.8484161 C52.8239391,17.7798446 53.3599797,16.7112732 53.3599797,16.7112732 C53.3599797,16.7112732 56.5765279,19.3827018 56.0401827,20.9855589 C55.5041421,22.5884161 52.8891168,21.8977911 51.7518579,21.5198446 C50.143736,20.9855589 49.0716548,20.9855589 48.5356142,22.0541304 C47.9995736,23.1227018 48.5356142,24.7255589 50.6797766,25.2598446 C51.8426193,25.5497554 53.3599797,25.7941304 54.9681015,25.7941304 C57.6486091,25.7941304 59.7927716,24.1912732 59.7927716,22.0541304 C59.7927716,19.8511125 58.7206904,17.7798446 56.5765279,15.1084161 C54.4320609,12.4369875 52.8239391,11.9027018 52.2878985,11.9027018" id="Fill-1"></path>
                    </g>
                    <path d="M68.0111099,22.5471169 C66.9190013,22.5471169 65.8268928,22.0682838 65.8268928,19.8162474 C65.8268928,18.9330594 66.0164605,17.7392349 66.2597028,16.4808627 C68.5912925,16.5196535 70.9117129,16.5326871 72.4322879,16.5370317 C72.1220298,17.7442002 71.7549945,18.8809246 71.2874355,19.8162474 C70.1953269,22.000943 69.1032184,22.5471169 68.0111099,22.5471169 M77.8400867,6.70776347 C77.8400867,6.70776347 80.5703581,9.98511719 80.0243038,11.6236389 C79.7472433,12.4553128 78.4841826,12.7237448 76.8801482,12.786741 C77.361979,9.57859003 77.8400867,6.70776347 77.8400867,6.70776347 M94.7680794,12.7159867 C94.7680794,13.2621606 94.7680794,18.1777257 94.2217149,19.8162474 C93.0635214,23.2918995 89.8532807,22.5471169 89.3075367,20.3624213 C88.7149437,17.9927714 89.3075367,13.8083345 89.3075367,12.7159867 C88.7611722,12.1698128 87.1233196,11.6236389 86.0312111,12.1698128 C85.4848465,12.7159867 83.846994,17.6315518 82.7548854,19.2700735 C81.6624666,20.9085952 80.5703581,22.5471169 78.386141,22.5471169 C77.2940325,22.5471169 75.6558697,22.000943 76.2019239,17.6315518 C76.2466011,17.2752975 76.2950014,16.9035268 76.3458837,16.5227567 C79.1444118,16.4656567 81.4614194,16.1944317 82.7548854,14.9006823 C84.1467033,13.5082492 83.846994,10.5312911 82.7548854,7.80011127 C82.0236071,5.97198033 80.0243038,2.88485649 78.9321953,2.33837227 C78.2415607,1.99328967 76.7479782,1.79219837 75.6558697,2.33837227 C75.1098154,2.88485649 74.0177068,8.89245907 73.4716526,11.6236389 C73.3990522,11.9873411 73.3261415,12.361284 73.2523001,12.7405025 C72.7670564,12.7265378 72.2895692,12.7159867 71.8334898,12.7159867 C70.8515228,12.7159867 69.021,12.6452323 67.0552046,12.5800639 C67.5522381,10.0912487 68.0111099,7.75480366 68.0111099,7.25424769 C68.0111099,6.70776347 65.8268928,6.16189989 64.7347842,6.70776347 C64.3599924,7.08263737 63.7286172,9.77130253 63.1924912,12.4807595 C61.1345491,12.4531405 59.4942145,12.4956552 59.2742415,12.7159867 C58.4111035,13.5796242 57.6360787,15.4468562 58.182133,15.9930301 C58.3729417,16.1838806 60.1646823,16.3080111 62.4841719,16.3886958 C61.9781409,19.3976175 61.6799829,20.9238012 62.0045129,22.5471169 C62.5505671,25.2779864 65.2808385,26.3703342 68.0111099,26.3703342 C71.2874355,26.3703342 72.9255983,24.7318125 73.4716526,24.1856386 C74.0177068,24.7318125 76.0198024,26.3703342 78.7500738,26.3703342 C80.3885468,26.3703342 82.7548854,26.3703342 86.0312111,20.9085952 C86.0312111,24.7318125 88.2154281,26.3703342 90.3996452,26.3703342 C93.1296063,26.3703342 94.2217149,25.2779864 94.2217149,25.2779864 C94.2217149,25.2779864 94.2217149,28.5550298 92.5838623,30.7397254 C90.9453892,32.924421 88.7611722,32.924421 88.7611722,34.5629427 C88.7611722,36.2014644 91.8808174,36.5142731 94.2217149,35.1091166 C96.9522965,33.4705949 98.1207285,29.65917 98.5904593,26.3703342 C99.1365136,22.5471169 99.1365136,13.2621606 98.5904593,12.7159867 C98.044405,12.1698128 94.7680794,11.9435851 94.7680794,12.7159867" id="Fill-4" fill="#F45D1F"></path>
                    <g id="Group-8" transform="translate(106.000000, 0.000000)">
                        <mask id="mask-2" fill="white">
                            <use xlink:href="#path-1"></use>
                        </mask>
                        <g id="Clip-7"></g>
                        <path d="M15.894697,7.03335825 L11.5592424,7.03335825 C11.2716667,6.63487282 11.094697,6.27762039 11.094697,5.97394078 C11.094697,4.38481456 12.1616667,3.85510583 13.2280303,3.85510583 C14.8280303,3.85510583 16.4283333,4.9145233 15.894697,7.03335825 M18.5616667,10.2116107 C19.095,9.68190194 19.9895455,7.59858155 19.6280303,5.44423204 C19.095,2.26597961 16.4283333,0.14714466 12.694697,0.14714466 C10.0283333,0.14714466 6.8280303,1.73627087 6.29469697,4.9145233 C6.1619697,5.70517379 6.24166667,6.41004757 6.47106061,7.06465922 C4.11469697,7.11401845 1.82045455,7.23982427 1.49469697,7.56306699 C0.428030303,8.62248447 -0.10530303,10.2116107 0.428030303,10.7413194 C0.961363636,11.2710282 5.2280303,10.2116107 8.4280303,10.2116107 C8.53106061,10.2116107 8.63530303,10.2122126 8.73954545,10.2128146 C9.84833333,11.3333291 11.1310606,12.4869505 12.1616667,13.9195718 C14.8280303,17.627533 15.4362121,20.583067 14.8280303,22.3949117 C14.295,23.9840379 13.2280303,25.5731641 10.5613636,25.5731641 C8.4280303,25.5731641 5.75106061,24.4625816 5.2280303,21.8652029 C4.69469697,19.2166592 5.81772727,18.0452806 6.29469697,17.0978243 C7.36136364,14.9789893 4.69469697,12.8601544 3.09469697,14.4492806 C2.34045455,15.1983971 0.812575758,17.0725427 0.428030303,19.746368 C-0.10530303,23.4543291 0.673787879,26.3063291 3.62833333,28.7514165 C6.8280303,31.3999602 12.1616667,31.3999602 14.8280303,29.810834 C16.8731818,28.5919019 20.1613636,25.5731641 19.6280303,19.746368 C19.3383333,16.5813583 16.9616667,13.3898631 15.3613636,11.2710282 C15.1401515,10.9778825 14.8974242,10.6877466 14.645303,10.4012223 C16.7004545,10.4758631 18.2834848,10.4879019 18.5616667,10.2116107" id="Fill-6" fill="#F45D1F" mask="url(#mask-2)"></path>
                    </g>
                    <path d="M157.5,10 C158.880682,10 160,8.88068182 160,7.5 C160,6.11931818 158.880682,5 157.5,5 C156.118963,5 155,6.11931818 155,7.5 C155,8.88068182 156.118963,10 157.5,10" id="Fill-9" fill="#F45D1F"></path>
                    <path d="M167.537538,21.5400096 C165.925258,21.5400096 164.850405,20.4551388 164.850405,18.2853971 C164.850405,16.6580908 165.925258,15.57322 167.000111,15.57322 C168.612696,15.57322 169.687244,17.2005262 169.687244,18.8278325 C169.687244,20.4551388 168.612696,21.5400096 167.537538,21.5400096 M133.449119,15.1512915 C134.524278,15.1512915 135.598825,15.6937269 135.598825,16.7785978 C135.061704,17.3210332 133.449119,17.3210332 132.911692,17.3210332 C132.374571,17.3210332 131.299413,17.3210332 130.761986,16.7785978 C130.761986,16.2361624 131.837145,15.1512915 133.449119,15.1512915 M203.007998,15.1512915 C201.070819,13.6851749 198.170853,11.896679 197.633732,11.896679 C197.096305,11.896679 195.484026,15.1512915 194.409172,16.7785978 C193.334014,18.4059041 191.721734,20.5756458 190.647186,21.1180812 C189.572028,21.6605166 189.034601,20.0332103 189.572028,17.8634686 C190.10976,15.6937269 190.647186,12.9815498 190.647186,12.4391144 C190.10976,11.896679 187.735006,11.5813884 186.884895,12.4391144 C186.347774,12.9815498 186.222272,15.6567427 185.810347,17.3210332 C185.272615,19.4907749 184.198067,22.202952 182.048361,22.202952 C179.832392,22.202952 179.898349,20.0332103 180.435776,17.8634686 C180.973202,15.6937269 181.510934,13.5239852 181.510934,12.4391144 C181.510934,11.896679 178.823496,11.3542435 177.748643,12.4391144 C177.211522,13.5239852 175.883834,15.0076694 174.524083,15.6937269 C173.44923,16.2361624 172.912109,16.2361624 172.912109,16.2361624 C172.912109,16.2361624 172.276052,13.7455824 169.687244,12.4391144 C167.537538,11.3542435 162.700698,11.3542435 161.088419,16.2361624 C160.173267,19.0072061 160.791307,19.847981 160.550992,20.5756458 C160.013566,22.202952 156.789006,22.7453875 157.096194,20.5756458 C157.324295,18.9649824 158.708474,12.9815498 158.708474,12.4391144 C158.708474,11.6719997 155.095502,11.6867934 154.946488,12.4391144 C154.409061,15.1512915 153.871635,17.3210332 153.334208,18.9483395 C152.796781,20.5756458 151.644979,22.202952 150.877008,22.202952 C149.177702,22.202952 149.572222,20.5756458 150.647075,15.1512915 C150.647075,15.1512915 150.109649,14.0664207 146.885089,13.5239852 C143.026,12.8746037 142.585676,11.3542435 142.585676,11.3542435 C142.585676,11.3542435 140.43597,10.2693727 139.361117,11.896679 C138.418483,13.3239622 139.898238,14.6088561 140.973397,14.6088561 C141.510823,17.3210332 140.43597,20.0332103 138.286264,21.6605166 C137.070031,22.5811158 133.986851,23.2878229 132.374571,22.202952 C130.761986,21.1180812 130.761986,20.0332103 130.761986,20.0332103 L133.986851,20.0332103 C135.598825,20.0332103 137.748532,20.0332103 138.82369,19.4907749 C139.898238,14.6088561 136.673984,11.896679 133.449119,11.896679 C130.70916,11.896679 127,14.0664207 127,19.4907749 C127,24.9151292 132.374571,26 134.524278,26 C136.136557,26 137.748532,26 139.898238,24.9151292 C142.047944,23.8302583 144.197651,20.0332103 144.735383,16.7785978 C144.735383,16.7785978 146.347357,16.7785978 146.885089,17.3210332 C146.885089,17.8634686 145.935432,21.0814051 146.347357,22.7453875 C146.885089,24.9151292 148.497369,26 150.647075,26 C152.259355,26 152.796781,25.4575646 153.871635,24.3726937 C154.946488,25.4575646 156.021341,26 157.633621,26 C160.320754,26 162.700698,23.8302583 162.700698,23.8302583 C162.700698,23.8302583 164.312673,26 167.000111,26 C169.687244,26 172.912109,24.9151292 173.44923,20.0332103 C174.524083,19.4907749 175.598937,18.9483395 176.67379,17.8634686 C176.67379,17.8634686 175.456641,20.6869067 176.136363,22.7453875 C176.67379,24.3726937 178.823496,26 182.048361,26 C184.735188,26 185.810347,25.4575646 186.884895,24.3726937 C187.422321,25.4575646 187.960053,26 189.034601,26 C191.721734,26 193.334014,23.8302583 194.409172,22.7453875 C195.484026,21.6605166 198.708585,16.7785978 198.708585,16.7785978 C198.708585,16.7785978 203.739325,19.4907749 203.201899,21.1180812 C202.664167,22.7453875 200.04238,22.044228 198.902486,21.6605166 C197.290206,21.1180812 196.215048,21.1180812 195.677621,22.202952 C195.1405,23.2878229 195.677621,24.9151292 197.827328,25.4575646 C198.993482,25.7518974 200.514461,26 202.12674,26 C204.813873,26 206.736089,24.3606739 206.96358,22.202952 C207.30741,18.9483395 205.157704,16.7785978 203.007998,15.1512915" id="Fill-11" fill="#F45D1F"></path>
                </g>
            </g>
        </g>
    </g>
</svg>